<?xml version="1.0" encoding="utf-8"?>
<!-- Generator: Adobe Illustrator 23.0.3, SVG Export Plug-In . SVG Version: 6.00 Build 0)  -->
<svg version="1.1" id="Camada_1" xmlns="http://www.w3.org/2000/svg" xmlns:xlink="http://www.w3.org/1999/xlink" x="0px" y="0px"
	 viewBox="0 0 526.4 127.8" style="enable-background:new 0 0 526.4 127.8;" xml:space="preserve">
<style type="text/css">
	.st0{fill:#006FB3;}
	.st1{fill:#929498;}
</style>
<g id="blue">
	<path class="st0" d="M316.1,83.9c-6.9-1.9-11.2-7.4-12-15.3l-0.4-4l1.9-0.3c1-0.2,3.7-0.5,5.9-0.7l4.1-0.4l0.4,3.2
		c0.9,7,8.3,9.8,12.1,4.7c1.2-1.7,1.3-2.4,1.5-25l0.2-23.2h6.1h6.1v23.5c0,20.6-0.1,23.9-1,26.7c-1.4,4.3-5.5,8.5-9.7,10
		C327.2,84.6,319.8,85,316.1,83.9z"/>
	<path class="st0" d="M365.9,84c-6.2-1.5-11.1-5.1-13.7-10c-1.7-3.2-2.2-11.1-2.2-31.1V23h6.1h6l0.3,21.4c0.3,21.1,0.4,21.4,1.8,24
		c2.1,3.8,4.8,5.1,10,5.1c3.4,0,4.8-0.3,6.4-1.3c4-2.6,4-1.8,4.2-26.7l0.2-22.5h6.4h6.5l-0.2,23.1c-0.3,26.7-0.4,27.6-5.3,32.5
		c-4,4.1-8.3,5.6-16.6,5.9C371.7,84.7,367.9,84.5,365.9,84z"/>
	<path class="st0" d="M193.9,53.3V23h6.4h6.4v30.3v30.3h-6.4h-6.4V53.3z"/>
	<path class="st0" d="M226.3,58.8V34h-8.9h-8.9v-5.5V23h23.9h23.9v5.5V34h-8.9h-8.9v24.8v24.8h-6.1h-6.1V58.8z"/>
	<path class="st0" d="M246.7,82.8c0.1-0.4,5.3-14.1,11.5-30.3L269.4,23h6.8h6.8l11.4,29.3c6.3,16,11.6,29.7,11.8,30.3
		c0.4,1-0.1,1-6.5,0.9l-6.9-0.2l-2.5-6.5l-2.4-6.6h-11.7h-11.7l-2.4,6.7l-2.4,6.7h-6.6C248,83.6,246.5,83.4,246.7,82.8z M283.3,58.7
		c0-0.2-1.6-4.9-3.5-10.3l-3.5-9.9l-3.5,9.8c-2,5.4-3.5,10.1-3.5,10.4c0,0.2,3.2,0.5,7,0.5S283.3,58.9,283.3,58.7z"/>
	<path class="st0" d="M405,53.3V22.9l17.9,0.2l17.9,0.2l3.5,1.7c2.5,1.2,4,2.6,5.4,4.6c1.8,2.6,2,3.4,2.2,7.8
		c0.3,5.8-0.6,8.3-4.3,12c-2.1,2.1-2.2,2.3-1,2.7c2,0.6,5.9,4.5,7.3,7c0.8,1.7,1.2,3.6,1.2,6.5c0,7.8-2.9,12.8-9.1,15.8l-3.5,1.7
		l-18.8,0.2L405,83.7V53.3z M438.5,71.8c1-0.6,2.4-1.7,2.9-2.4c1.3-1.8,1.2-5.7-0.1-7.9c-1.8-3-4.2-3.7-14.3-4l-9.1-0.4v8.1v8.1
		l9.4-0.2C434.4,72.9,437,72.6,438.5,71.8z M436.5,46c2.5-1.1,3.4-2.6,3.4-6.1c0-5.1-3.2-6.5-15.1-6.5h-6.9v6.7v6.7h8.3
		C431.9,46.8,435.1,46.6,436.5,46z"/>
	<path class="st0" d="M454.7,80.4c0.7-1.8,5.8-15.4,11.5-30.2l10.3-26.9h6.9h6.9l11.5,29.4c6.4,16.2,11.6,29.7,11.6,30.2
		c0,0.6-1.7,0.7-6.5,0.7h-6.6l-2.5-6.6l-2.5-6.5l-11.6-0.2L472,70.1l-2.4,6.7l-2.4,6.7h-6.9h-6.9L454.7,80.4z M487.3,49.5
		c-1.8-5.3-3.4-9.7-3.4-9.8c0-0.1-0.2-0.2-0.6-0.2c-0.4,0-7.4,18-7.4,19.2c0,0.2,3.3,0.4,7.3,0.4h7.3L487.3,49.5z"/>
	<path class="st0" d="M476,19.7c0-0.1,1.2-2.9,2.8-6.1l2.7-5.9h6.8c8,0,7.9-0.6,0.6,7.2l-4.7,5h-4C477.9,19.9,476,19.8,476,19.7z"/>
</g>
<g id="grey">
	<path class="st1" d="M7.9,90.9v-1.8h252.7h252.7v1.8v1.8H260.6H7.9V90.9z"/>
	<path class="st1" d="M162,84.2c-8.3-1.2-17.1-5.4-21.4-10.2c-6.5-7.4-8.6-20.7-4.8-31.4c2.9-8.4,10.2-15.1,19.7-18.1
		c5.4-1.8,16.6-2.7,22-1.9l2.9,0.4v7.5v7.5l-3.5-1.2c-4.5-1.5-10.8-1.2-15,0.6c-3.5,1.6-8.1,5.8-9.9,9.1c-2.1,3.9-1.8,10,0.5,14.3
		c2.1,3.9,5.8,6.9,10.6,8.7c2.9,1,4.3,1.2,8.7,1c2.9-0.2,5.8-0.5,6.6-0.7c1.3-0.4,1.3-0.4,1.3,6.6c0,4.5-0.2,7.2-0.7,7.5
		C178.1,84.6,166.4,84.7,162,84.2z"/>
	<path class="st1" d="M8.3,82.5c-0.2-0.2-0.4-13.6-0.4-29.7V23.6h8h8v11.3v11.3H33h9.2V34.6V23h8h8v29.7v29.7h-8h-8V71V59.7H33h-9.2
		v11.6V83h-7.5C12.1,83,8.5,82.8,8.3,82.5z"/>
	<path class="st1" d="M63,52.7V23h11.8h11.7L91,38.1c2.5,8.4,4.8,15.8,5.1,16.7c0.6,1.3,1.4-0.8,6.1-15.1l5.5-16.7h11.6h11.6v29.7
		v29.7h-8h-8l-0.1-16.3l-0.2-16.3L108.8,65l-5.9,15.2H96h-6.9l-4.7-14.7l-4.7-14.7l-0.2,15.8l-0.1,15.7h-8.3H63V52.7z"/>
	<path class="st1" d="M264.4,101.7c-1.2-1.6-3.2-2.5-5.2-2.5c-4.9,0-8.1,3.9-8.1,8.8c0,4.6,3,8.4,8.1,8.4c2.5,0,4.4-1.1,5.7-2.9
		l2.5,1.9c-0.6,0.9-3.2,3.8-8.2,3.8c-6.9,0-11.1-5.8-11.1-11.2c0-6.7,4.6-11.6,11.3-11.6c2.8,0,5.8,1.1,7.6,3.4L264.4,101.7z"/>
	<path class="st1" d="M278,97h2.7l9.3,21.7h-3.4l-2.2-5.4H274l-2.1,5.4h-3.4L278,97z M283.2,110.8l-4-9.9h-0.1l-4.1,9.9H283.2z"/>
	<path class="st1" d="M293,97h7.6c5.5,0,6.9,3.3,6.9,6.1c0,2.7-1.4,6.1-6.9,6.1H296v9.5H293V97z M296,106.6h3.9
		c2.3,0,4.7-0.6,4.7-3.5s-2.3-3.5-4.7-3.5H296V106.6z"/>
	<path class="st1" d="M311.5,97h2.9v21.7h-2.9V97z"/>
	<path class="st1" d="M324.8,99.8h-7V97h16.9v2.8h-7v18.9h-2.9V99.8z"/>
	<path class="st1" d="M342.1,97h2.7l9.3,21.7h-3.4l-2.2-5.4h-10.3l-2.1,5.4h-3.4L342.1,97z M347.4,110.8l-4-9.9h-0.1l-4.1,9.9H347.4
		z"/>
	<path class="st1" d="M357.2,97h2.9v18.9h9.9v2.8h-12.9V97z"/>
	<path class="st1" d="M389,97h2.7l9.3,21.7h-3.4l-2.2-5.4H385l-2.1,5.4h-3.4L389,97z M394.2,110.8l-4-9.9h-0.1l-4.1,9.9H394.2z"/>
	<path class="st1" d="M403.5,97h7.6c9.1,0,11.4,6.8,11.4,10.8c0,5.5-4.1,10.8-11.9,10.8h-7.1V97z M406.5,115.9h3.7
		c5,0,9.2-2.7,9.2-8.1c0-2.8-1.4-8.1-8.5-8.1h-4.4V115.9z"/>
	<path class="st1" d="M424,97h3.4l6.4,17.6h0.1l6.6-17.6h3.2l-8.5,21.7h-2.8L424,97z"/>
	<path class="st1" d="M446.6,97h2.9v21.7h-2.9V97z"/>
	<path class="st1" d="M456,114.2c1,1.6,2.8,2.3,4.6,2.3c1.9,0,4.3-1.2,4.3-3.6c0-5-10.7-1.9-10.7-10.3c0-2.5,2.1-6.1,7.3-6.1
		c2.4,0,4.6,0.5,6.2,2.5l-2.4,2.2c-0.7-1.1-2.2-1.9-3.9-1.9c-3.2,0-4.2,2-4.2,3.3c0,5.5,10.7,2.2,10.7,10c0,4.2-3.4,6.7-7.5,6.7
		c-2.8,0-5.4-0.9-6.9-3L456,114.2z"/>
	<path class="st1" d="M471.4,107.9c0-6.4,4.7-11.4,11.3-11.4c6.6,0,11.3,5,11.3,11.4s-4.7,11.4-11.3,11.4
		C476,119.2,471.4,114.3,471.4,107.9z M490.8,107.9c0-4.7-3.2-8.6-8.2-8.6c-5,0-8.2,3.9-8.2,8.6c0,4.7,3.2,8.6,8.2,8.6
		C487.6,116.5,490.8,112.6,490.8,107.9z"/>
	<path class="st1" d="M498.5,97h7.6c5.5,0,6.9,3.3,6.9,6.1c0,2.8-2,5.4-5.3,5.7l6.1,9.9h-3.7l-5.5-9.5h-3.3v9.5h-2.9V97z
		 M501.4,106.6h3.9c2.3,0,4.7-0.6,4.7-3.5s-2.3-3.5-4.7-3.5h-3.9V106.6z"/>
</g>
</svg>
