<?xml version="1.0" encoding="utf-8"?>
<!-- Generator: Adobe Illustrator 20.1.0, SVG Export Plug-In . SVG Version: 6.00 Build 0)  -->
<svg version="1.1" id="Layer_1" xmlns="http://www.w3.org/2000/svg" xmlns:xlink="http://www.w3.org/1999/xlink" x="0px" y="0px"
	 viewBox="0 0 152.4 35.7" style="enable-background:new 0 0 152.4 35.7;" xml:space="preserve">
<style type="text/css">
	.st0{fill:#6182E8;}
	.st1{fill:#FF4A00;}
	.st2{fill:#00C93B;}
</style>
<g>
	<path d="M44.8,18.3L44.8,18.3c0-5,3.8-9.2,9.1-9.2c3.1,0,5,0.9,6.8,2.4l-2,2.4c-1.4-1.2-2.7-1.9-5-1.9c-3.3,0-5.8,2.9-5.8,6.3v0.1
		c0,3.6,2.4,6.3,6,6.3c1.7,0,3.2-0.5,4.3-1.3v-3.3h-4.5v-2.7h7.5v7.4c-1.7,1.5-4.3,2.8-7.4,2.8C48.4,27.4,44.8,23.5,44.8,18.3"/>
	<path d="M66,21.8c0.4,0.7,1.8,2.7,5.5,2.7c0.6,0,1.3,0,1.9-0.3c1.3-0.5,1.5-1.4,1.5-2.1c0-1.1-0.8-1.5-1.3-1.8
		c-0.4-0.2-0.5-0.2-2.1-0.6l-2.2-0.5c-1.1-0.3-1.7-0.4-2.3-0.6c-0.8-0.3-3-1.4-3-4.4c0-3.4,2.9-5.6,7.1-5.6c3.8,0,5.9,1.9,7.2,3.6
		l-2.7,2.1c-0.6-0.9-1.8-2.7-4.6-2.7c-1.8,0-3.4,0.8-3.4,2.2c0,1.5,1.7,1.8,3.3,2.1l1.8,0.4c2.4,0.5,5.8,1.5,5.8,5.3
		c0,4.1-3.8,5.8-7.6,5.8c-1,0-2.1-0.1-3.2-0.4c-1.2-0.4-3.3-1.2-4.6-3.4L66,21.8z"/>
</g>
<polygon points="79.4,9.4 82.9,9.4 88.2,23 93.5,9.4 96.9,9.4 89.5,27.2 86.8,27.2 "/>
<g>
	<path d="M108.2,16.2c-0.3-0.4-0.6-0.8-1-1c-0.4-0.3-0.8-0.5-1.3-0.6c-0.5-0.1-0.9-0.2-1.4-0.2c-0.9,0-1.7,0.2-2.3,0.5
		c-0.7,0.3-1.2,0.8-1.6,1.4c-0.4,0.6-0.7,1.2-0.9,1.9c-0.2,0.7-0.3,1.5-0.3,2.2c0,0.7,0.1,1.5,0.3,2.2c0.2,0.7,0.5,1.4,0.9,1.9
		c0.4,0.6,1,1,1.6,1.4c0.7,0.3,1.4,0.5,2.3,0.5c0.6,0,1.2-0.1,1.7-0.3c0.5-0.2,1-0.5,1.3-0.9c0.4-0.4,0.7-0.9,0.9-1.4
		c0.2-0.5,0.4-1.1,0.4-1.7h1.3c-0.1,0.8-0.3,1.6-0.6,2.3c-0.3,0.7-0.7,1.3-1.2,1.7c-0.5,0.5-1.1,0.8-1.7,1.1
		c-0.7,0.3-1.4,0.4-2.2,0.4c-1.1,0-2-0.2-2.8-0.6c-0.8-0.4-1.5-0.9-2-1.6c-0.5-0.7-0.9-1.4-1.2-2.3c-0.3-0.9-0.4-1.8-0.4-2.7
		c0-0.9,0.1-1.9,0.4-2.7c0.3-0.9,0.7-1.6,1.2-2.3s1.2-1.2,2-1.6c0.8-0.4,1.8-0.6,2.8-0.6c0.7,0,1.3,0.1,1.9,0.3
		c0.6,0.2,1.2,0.5,1.7,0.9c0.5,0.4,0.9,0.8,1.3,1.4c0.3,0.6,0.6,1.2,0.6,1.9h-1.3C108.6,17.1,108.4,16.6,108.2,16.2"/>
	<path d="M118.1,21.8c-0.1,0.1-0.2,0.2-0.4,0.3c-0.2,0.1-0.4,0.1-0.6,0.1c-0.5,0.1-1,0.2-1.6,0.2c-0.5,0.1-1,0.2-1.5,0.3
		c-0.4,0.1-0.8,0.3-1.1,0.6c-0.3,0.3-0.4,0.6-0.4,1.1c0,0.3,0.1,0.6,0.2,0.8c0.1,0.2,0.3,0.4,0.5,0.6c0.2,0.2,0.4,0.3,0.7,0.4
		c0.3,0.1,0.5,0.1,0.8,0.1c0.5,0,0.9-0.1,1.3-0.2c0.4-0.1,0.8-0.3,1.1-0.6c0.3-0.3,0.6-0.6,0.8-1c0.2-0.4,0.3-0.8,0.3-1.3
		L118.1,21.8L118.1,21.8z M112.1,18.8c0.2-0.4,0.5-0.8,0.8-1c0.4-0.3,0.8-0.5,1.2-0.6s1-0.2,1.6-0.2c0.4,0,0.9,0,1.3,0.1
		c0.4,0.1,0.8,0.2,1.2,0.5c0.3,0.2,0.6,0.6,0.8,1c0.2,0.4,0.3,1,0.3,1.6v5.3c0,0.5,0.2,0.7,0.7,0.7c0.1,0,0.3,0,0.4-0.1v1
		c-0.1,0-0.3,0-0.4,0.1s-0.2,0-0.4,0c-0.3,0-0.6,0-0.7-0.1c-0.2-0.1-0.3-0.2-0.4-0.4c-0.1-0.2-0.2-0.3-0.2-0.5c0-0.2,0-0.4,0-0.7h0
		c-0.2,0.3-0.4,0.6-0.7,0.9c-0.2,0.2-0.5,0.5-0.8,0.6c-0.3,0.2-0.6,0.3-0.9,0.4c-0.4,0.1-0.8,0.1-1.3,0.1c-0.5,0-0.9-0.1-1.3-0.2
		c-0.4-0.1-0.8-0.3-1.1-0.5c-0.3-0.2-0.5-0.5-0.7-0.9c-0.2-0.4-0.3-0.8-0.3-1.3c0-0.7,0.2-1.2,0.5-1.6s0.7-0.7,1.2-0.9
		c0.5-0.2,1.1-0.3,1.7-0.4c0.6-0.1,1.3-0.2,1.9-0.2c0.3,0,0.5-0.1,0.7-0.1c0.2,0,0.4-0.1,0.5-0.2s0.2-0.2,0.3-0.4
		c0.1-0.2,0.1-0.4,0.1-0.7c0-0.4-0.1-0.7-0.2-1c-0.1-0.3-0.3-0.5-0.6-0.6c-0.2-0.2-0.5-0.3-0.8-0.3c-0.3-0.1-0.7-0.1-1-0.1
		c-0.8,0-1.4,0.2-1.9,0.5c-0.5,0.4-0.7,1-0.8,1.8h-1.2C111.7,19.7,111.9,19.2,112.1,18.8"/>
	<path d="M129.4,20.7c-0.1-0.5-0.3-1-0.6-1.4c-0.3-0.4-0.6-0.7-1-1c-0.4-0.2-0.9-0.4-1.5-0.4c-0.7,0-1.2,0.1-1.7,0.3
		c-0.5,0.2-0.8,0.5-1.1,0.9c-0.3,0.4-0.5,0.8-0.6,1.3c-0.1,0.5-0.2,1.1-0.2,1.6c0,0.5,0.1,1,0.2,1.5c0.1,0.5,0.3,1,0.6,1.4
		c0.3,0.4,0.6,0.7,1.1,1c0.4,0.3,1,0.4,1.6,0.4c0.6,0,1.1-0.1,1.5-0.4c0.4-0.2,0.7-0.6,1-1c0.3-0.4,0.5-0.9,0.6-1.4
		c0.1-0.5,0.2-1,0.2-1.5C129.6,21.7,129.5,21.2,129.4,20.7 M122.7,17.3v1.9h0c0.3-0.7,0.7-1.2,1.4-1.6c0.6-0.4,1.4-0.6,2.2-0.6
		c0.8,0,1.4,0.1,2,0.4c0.6,0.3,1,0.7,1.4,1.1c0.4,0.5,0.6,1,0.8,1.7c0.2,0.6,0.3,1.3,0.3,2s-0.1,1.4-0.3,2c-0.2,0.6-0.5,1.2-0.8,1.7
		c-0.4,0.5-0.8,0.9-1.4,1.1c-0.6,0.3-1.2,0.4-2,0.4c-0.4,0-0.7,0-1.1-0.1c-0.4-0.1-0.7-0.2-1-0.4c-0.3-0.2-0.6-0.4-0.8-0.7
		c-0.2-0.3-0.4-0.6-0.5-0.9h0v5.5h-1.2V17.3H122.7z"/>
</g>
<path d="M133.7,27.2h-1.2v-9.9h1.2V27.2z M133.7,15.4h-1.2v-1.9h1.2V15.4z"/>
<g>
	<path d="M139.8,17.3v1h-2V25c0,0.4,0.1,0.7,0.2,0.9c0.1,0.2,0.4,0.4,0.8,0.4c0.3,0,0.7,0,1-0.1v1c-0.2,0-0.4,0-0.5,0
		c-0.2,0-0.4,0-0.5,0c-0.8,0-1.4-0.2-1.7-0.5c-0.3-0.3-0.5-0.9-0.5-1.7v-6.8h-1.7v-1h1.7v-3h1.2v3H139.8z"/>
	<path d="M147.7,21.8c-0.1,0.1-0.2,0.2-0.4,0.3c-0.2,0.1-0.4,0.1-0.6,0.1c-0.5,0.1-1,0.2-1.6,0.2c-0.5,0.1-1,0.2-1.5,0.3
		c-0.4,0.1-0.8,0.3-1.1,0.6c-0.3,0.3-0.4,0.6-0.4,1.1c0,0.3,0.1,0.6,0.2,0.8c0.1,0.2,0.3,0.4,0.5,0.6c0.2,0.2,0.4,0.3,0.7,0.4
		c0.3,0.1,0.5,0.1,0.8,0.1c0.5,0,0.9-0.1,1.3-0.2c0.4-0.1,0.8-0.3,1.1-0.6c0.3-0.3,0.6-0.6,0.8-1c0.2-0.4,0.3-0.8,0.3-1.3
		L147.7,21.8L147.7,21.8z M141.6,18.8c0.2-0.4,0.5-0.8,0.8-1c0.4-0.3,0.8-0.5,1.2-0.6c0.5-0.1,1-0.2,1.6-0.2c0.4,0,0.9,0,1.3,0.1
		c0.4,0.1,0.8,0.2,1.2,0.5c0.3,0.2,0.6,0.6,0.8,1c0.2,0.4,0.3,1,0.3,1.6v5.3c0,0.5,0.2,0.7,0.7,0.7c0.1,0,0.3,0,0.4-0.1v1
		c-0.1,0-0.3,0-0.4,0.1s-0.2,0-0.4,0c-0.3,0-0.6,0-0.7-0.1c-0.2-0.1-0.3-0.2-0.4-0.4c-0.1-0.2-0.2-0.3-0.2-0.5c0-0.2,0-0.4,0-0.7h0
		c-0.2,0.3-0.4,0.6-0.7,0.9c-0.2,0.2-0.5,0.5-0.8,0.6c-0.3,0.2-0.6,0.3-0.9,0.4c-0.4,0.1-0.8,0.1-1.3,0.1c-0.5,0-0.9-0.1-1.3-0.2
		c-0.4-0.1-0.8-0.3-1.1-0.5c-0.3-0.2-0.5-0.5-0.7-0.9c-0.2-0.4-0.3-0.8-0.3-1.3c0-0.7,0.2-1.2,0.5-1.6c0.3-0.4,0.7-0.7,1.2-0.9
		c0.5-0.2,1.1-0.3,1.7-0.4c0.6-0.1,1.3-0.2,1.9-0.2c0.3,0,0.5-0.1,0.7-0.1c0.2,0,0.4-0.1,0.5-0.2s0.2-0.2,0.3-0.4
		c0.1-0.2,0.1-0.4,0.1-0.7c0-0.4-0.1-0.7-0.2-1c-0.1-0.3-0.3-0.5-0.6-0.6c-0.2-0.2-0.5-0.3-0.8-0.3c-0.3-0.1-0.7-0.1-1-0.1
		c-0.8,0-1.4,0.2-1.9,0.5c-0.5,0.4-0.7,1-0.8,1.8h-1.2C141.3,19.7,141.4,19.2,141.6,18.8"/>
</g>
<rect x="151.2" y="13.5" width="1.2" height="13.7"/>
<g>
	<path class="st0" d="M17.9,3.1C9.7,3.1,3.1,9.7,3.1,17.9s6.6,14.7,14.7,14.7c8.1,0,14.7-6.6,14.7-14.7S26,3.1,17.9,3.1 M35.7,17.9
		c0,9.9-8,17.9-17.9,17.9C8,35.7,0,27.7,0,17.9S8,0,17.9,0C27.7,0,35.7,8,35.7,17.9"/>
	<path d="M17.8,7.1c-6.3,0-11.4,5.1-11.4,11.4c0,6.3,5.1,11.4,11.4,11.4c6.3,0,11.4-5.1,11.4-11.4C29.2,12.2,24.1,7.1,17.8,7.1
		 M32.3,18.5c0,8-6.5,14.5-14.5,14.5c-8,0-14.5-6.5-14.5-14.5S9.8,4,17.8,4C25.8,4,32.3,10.5,32.3,18.5"/>
	<path class="st1" d="M18.8,9.5c-4.3,0-7.7,3.5-7.7,7.7c0,4.3,3.5,7.7,7.7,7.7c4.3,0,7.7-3.5,7.7-7.7C26.5,13,23,9.5,18.8,9.5
		 M29.4,17.2c0,5.9-4.8,10.7-10.7,10.7c-5.9,0-10.7-4.8-10.7-10.7S12.8,6.5,18.8,6.5C24.7,6.5,29.4,11.3,29.4,17.2"/>
	<path class="st2" d="M22.8,19.3c0,3-2.4,5.4-5.4,5.4c-3,0-5.4-2.4-5.4-5.4s2.4-5.4,5.4-5.4C20.4,13.9,22.8,16.3,22.8,19.3"/>
</g>
</svg>
